<svg id="Lager_1" data-name="Lager 1" xmlns="http://www.w3.org/2000/svg" viewBox="0 0 300 300"><defs><style>.cls-1{fill:#111;}.cls-2{fill:#fff;}</style></defs><title>logo</title><rect class="cls-1" width="300" height="300"/><path class="cls-2" d="M20.18,178.22v9.07H30.27v1.26H20.18V198H18.92V177H31.56v1.23Z"/><path class="cls-2" d="M38.56,192l-2.7,6H34.48L44,177h1.35L55,198H53.57l-2.73-6Zm6.1-13.57-5.55,12.31H50.27Z"/><path class="cls-2" d="M73.13,178.64l-.57,1.14a10.56,10.56,0,0,0-5.5-1.53c-3.33,0-5.5,1.38-5.5,3.57,0,6.39,12.34,3.09,12.28,10.84,0,3.24-2.91,5.34-7.29,5.34a11.05,11.05,0,0,1-7.48-3l.66-1.11a9.88,9.88,0,0,0,6.84,2.85c3.6,0,5.91-1.56,5.91-4,.06-6.58-12.28-3.21-12.28-10.78,0-3,2.76-5,6.9-5A11.6,11.6,0,0,1,73.13,178.64Z"/><path class="cls-2" d="M87.64,178.22V198H86.38V178.22H79.29V177H94.73v1.23Z"/><path class="cls-2" d="M125,178.64l-.57,1.14a10.56,10.56,0,0,0-5.5-1.53c-3.33,0-5.5,1.38-5.5,3.57,0,6.39,12.34,3.09,12.28,10.84,0,3.24-2.91,5.34-7.29,5.34a11.05,11.05,0,0,1-7.48-3l.66-1.11a9.88,9.88,0,0,0,6.84,2.85c3.6,0,5.91-1.56,5.91-4,.06-6.58-12.28-3.21-12.28-10.78,0-3,2.76-5,6.9-5A11.6,11.6,0,0,1,125,178.64Z"/><path class="cls-2" d="M135.71,178.22v8.37h10.93v1.26H135.71v8.89h12.67V198H134.45V177H148v1.23Z"/><path class="cls-2" d="M177.6,199.62a7.36,7.36,0,0,1-5,2.28c-2.16,0-4.35-1.32-6.54-3.9h-.51a10.53,10.53,0,1,1,10.87-10.54,10.59,10.59,0,0,1-8.92,10.36c1.89,1.92,3.57,2.91,5.2,2.91a6.69,6.69,0,0,0,4.29-2Zm-12.07-2.85a9.3,9.3,0,1,0-9.58-9.31A9.47,9.47,0,0,0,165.53,196.77Z"/><path class="cls-2" d="M201.48,189.39c0,5.46-3.12,8.61-8.49,8.61s-8.5-3.15-8.5-8.61V177h1.26v12.4c0,4.68,2.67,7.38,7.24,7.38s7.23-2.7,7.23-7.38V177h1.26Z"/><path class="cls-2" d="M220.38,190.86a11.21,11.21,0,0,1-1.77.12h-6.15v7h-1.26V177h7.41c5.2,0,8.14,2.52,8.14,6.91a6.4,6.4,0,0,1-5.16,6.75l5.26,7.33h-1.5Zm-1.75-1.11c4.39,0,6.88-2.07,6.88-5.83s-2.49-5.7-6.88-5.7h-6.18v11.53Z"/><path class="cls-2" d="M235.88,198V177h1.26v21Z"/><path class="cls-2" d="M252.46,178.22V198H251.2V178.22h-7.08V177h15.43v1.23Z"/><path class="cls-2" d="M272.8,198h-1.23v-7.62L263.16,177h1.35l7.66,11.8,7.56-11.8h1.35l-8.28,13.3Z"/><path class="cls-2" d="M204.25,127.2a28.74,28.74,0,0,1-16.79,26.33,28.76,28.76,0,0,1-31-4.13l-36.26-30.55a11.07,11.07,0,0,0-12.34-2.27A11.24,11.24,0,1,0,120,135.17l3.61-3.06,6.75,5.67-4.57,3.9a20,20,0,1,1,.26-29.36l36.11,30.41a20.32,20.32,0,1,0,.15-31.22L149.92,121.7l-6.78-5.7,13.56-11.2a29.06,29.06,0,0,1,47.55,22.41Z"/></svg>