<svg id="Lager_1" data-name="Lager 1" xmlns="http://www.w3.org/2000/svg" viewBox="0 0 300 300"><defs><style>.cls-1{fill:#fff;}</style></defs><title>logo</title><path class="cls-1" d="M282.38,150a68.88,68.88,0,0,1-40.25,63.12,68.95,68.95,0,0,1-74.28-9.9L80.94,130c-8.51-8-19.39-9.84-29.57-5.44a27,27,0,0,0-.14,49.38,26.47,26.47,0,0,0,29.09-4.81L89,161.79l16.18,13.6-11,9.35A47,47,0,0,1,42.86,193a47.88,47.88,0,0,1,.21-87.75,47.32,47.32,0,0,1,51.76,9.07l86.56,72.89a48.7,48.7,0,1,0,52.1-81.33,47.75,47.75,0,0,0-51.75,6.49l-29.57,24.41-16.25-13.67,32.5-26.85a69.65,69.65,0,0,1,114,53.71Z"/></svg>