<svg xmlns="http://www.w3.org/2000/svg" xmlns:xlink="http://www.w3.org/1999/xlink" viewBox="0 0 596.83 366.11"><defs><style>.cls-1,.cls-3{fill:#fff;}.cls-2{fill:url(#radial-gradient);}.cls-3{font-size:161px;font-family:MyriadPro-Regular, Myriad Pro;}</style><radialGradient id="radial-gradient" cx="484.94" cy="99.4" r="59.86" gradientUnits="userSpaceOnUse"><stop offset="0" stop-color="#29abe2" stop-opacity="0"/><stop offset="0.31" stop-color="#29ace2" stop-opacity="0.01"/><stop offset="0.47" stop-color="#27b0e1" stop-opacity="0.04"/><stop offset="0.6" stop-color="#24b6e0" stop-opacity="0.1"/><stop offset="0.71" stop-color="#20bfde" stop-opacity="0.18"/><stop offset="0.8" stop-color="#1bcadb" stop-opacity="0.28"/><stop offset="0.89" stop-color="#14d8d9" stop-opacity="0.41"/><stop offset="0.98" stop-color="#0ce9d5" stop-opacity="0.56"/><stop offset="1" stop-color="#0aeed4" stop-opacity="0.61"/></radialGradient></defs><title>THEBIKE_logo</title><g id="Layer_2" data-name="Layer 2"><g id="Layer_1-2" data-name="Layer 1"><path class="cls-1" d="M335.45,199.87H309.53l-32.16-33.12C201.53,87.07,161.21,51.07,114.17,50.59c-31.68,0-78.26,15.84-78.26,62.4,0,28.32,2,57.35,3,77.8H3C2,163.86,1.5,139.51,1.5,103.51c0-67.2,62.75-95.16,107.39-95.16,57.6,0,104.16,41.76,167.52,107.52l23,25h1V.67h35Z"/><path class="cls-1" d="M484.94,0a99.41,99.41,0,1,0,99.41,99.41A99.4,99.4,0,0,0,484.94,0Zm0,159.31a59.91,59.91,0,1,1,59.91-59.9A59.9,59.9,0,0,1,484.94,159.31Z"/><circle class="cls-1" cx="368.64" cy="177.1" r="22.94"/><circle class="cls-2" cx="484.94" cy="99.4" r="59.86"/><text class="cls-3" transform="translate(3.15 325.39)">THE BIKE</text></g></g></svg>